<mxfile host="app.diagrams.net" modified="2021-07-23T08:38:34.275Z" agent="5.0 (Macintosh)" etag="MZsS1K_xNnjSyGu4X99l" version="14.9.2" type="github">
  <diagram id="xR_jZyx8_tS9jOM-MKk6" name="Page-1">
    <mxGraphModel dx="1186" dy="651" grid="1" gridSize="10" guides="1" tooltips="1" connect="1" arrows="1" fold="1" page="1" pageScale="1" pageWidth="827" pageHeight="1169" math="0" shadow="0">
      <root>
        <mxCell id="0" />
        <mxCell id="1" parent="0" />
        <mxCell id="lAXujb-X61F8iAVJOoB3-1" value="" style="shape=table;startSize=0;container=1;collapsible=0;childLayout=tableLayout;" vertex="1" parent="1">
          <mxGeometry x="130" y="250" width="408" height="406" as="geometry" />
        </mxCell>
        <mxCell id="lAXujb-X61F8iAVJOoB3-2" value="" style="shape=partialRectangle;collapsible=0;dropTarget=0;pointerEvents=0;fillColor=none;top=0;left=0;bottom=0;right=0;points=[[0,0.5],[1,0.5]];portConstraint=eastwest;" vertex="1" parent="lAXujb-X61F8iAVJOoB3-1">
          <mxGeometry width="408" height="65" as="geometry" />
        </mxCell>
        <mxCell id="lAXujb-X61F8iAVJOoB3-3" value="Item name" style="shape=partialRectangle;html=1;whiteSpace=wrap;connectable=0;overflow=hidden;fillColor=none;top=0;left=0;bottom=0;right=0;" vertex="1" parent="lAXujb-X61F8iAVJOoB3-2">
          <mxGeometry width="86" height="65" as="geometry" />
        </mxCell>
        <mxCell id="lAXujb-X61F8iAVJOoB3-4" value="Reference" style="shape=partialRectangle;html=1;whiteSpace=wrap;connectable=0;overflow=hidden;fillColor=none;top=0;left=0;bottom=0;right=0;" vertex="1" parent="lAXujb-X61F8iAVJOoB3-2">
          <mxGeometry x="86" width="86" height="65" as="geometry" />
        </mxCell>
        <mxCell id="lAXujb-X61F8iAVJOoB3-5" value="Quantity" style="shape=partialRectangle;html=1;whiteSpace=wrap;connectable=0;overflow=hidden;fillColor=none;top=0;left=0;bottom=0;right=0;" vertex="1" parent="lAXujb-X61F8iAVJOoB3-2">
          <mxGeometry x="172" width="75" height="65" as="geometry" />
        </mxCell>
        <mxCell id="lAXujb-X61F8iAVJOoB3-6" value="Image" style="shape=partialRectangle;html=1;whiteSpace=wrap;connectable=0;overflow=hidden;fillColor=none;top=0;left=0;bottom=0;right=0;" vertex="1" parent="lAXujb-X61F8iAVJOoB3-2">
          <mxGeometry x="247" width="161" height="65" as="geometry" />
        </mxCell>
        <mxCell id="lAXujb-X61F8iAVJOoB3-7" style="shape=partialRectangle;collapsible=0;dropTarget=0;pointerEvents=0;fillColor=none;top=0;left=0;bottom=0;right=0;points=[[0,0.5],[1,0.5]];portConstraint=eastwest;" vertex="1" parent="lAXujb-X61F8iAVJOoB3-1">
          <mxGeometry y="65" width="408" height="65" as="geometry" />
        </mxCell>
        <mxCell id="lAXujb-X61F8iAVJOoB3-8" value="Item 1" style="shape=partialRectangle;html=1;whiteSpace=wrap;connectable=0;overflow=hidden;fillColor=none;top=0;left=0;bottom=0;right=0;" vertex="1" parent="lAXujb-X61F8iAVJOoB3-7">
          <mxGeometry width="86" height="65" as="geometry" />
        </mxCell>
        <mxCell id="lAXujb-X61F8iAVJOoB3-9" style="shape=partialRectangle;html=1;whiteSpace=wrap;connectable=0;overflow=hidden;fillColor=none;top=0;left=0;bottom=0;right=0;" vertex="1" parent="lAXujb-X61F8iAVJOoB3-7">
          <mxGeometry x="86" width="86" height="65" as="geometry" />
        </mxCell>
        <mxCell id="lAXujb-X61F8iAVJOoB3-10" style="shape=partialRectangle;html=1;whiteSpace=wrap;connectable=0;overflow=hidden;fillColor=none;top=0;left=0;bottom=0;right=0;" vertex="1" parent="lAXujb-X61F8iAVJOoB3-7">
          <mxGeometry x="172" width="75" height="65" as="geometry" />
        </mxCell>
        <mxCell id="lAXujb-X61F8iAVJOoB3-11" style="shape=partialRectangle;html=1;whiteSpace=wrap;connectable=0;overflow=hidden;fillColor=none;top=0;left=0;bottom=0;right=0;" vertex="1" parent="lAXujb-X61F8iAVJOoB3-7">
          <mxGeometry x="247" width="161" height="65" as="geometry" />
        </mxCell>
        <mxCell id="lAXujb-X61F8iAVJOoB3-12" style="shape=partialRectangle;collapsible=0;dropTarget=0;pointerEvents=0;fillColor=none;top=0;left=0;bottom=0;right=0;points=[[0,0.5],[1,0.5]];portConstraint=eastwest;" vertex="1" parent="lAXujb-X61F8iAVJOoB3-1">
          <mxGeometry y="130" width="408" height="70" as="geometry" />
        </mxCell>
        <mxCell id="lAXujb-X61F8iAVJOoB3-13" value="Item 2" style="shape=partialRectangle;html=1;whiteSpace=wrap;connectable=0;overflow=hidden;fillColor=none;top=0;left=0;bottom=0;right=0;" vertex="1" parent="lAXujb-X61F8iAVJOoB3-12">
          <mxGeometry width="86" height="70" as="geometry" />
        </mxCell>
        <mxCell id="lAXujb-X61F8iAVJOoB3-14" style="shape=partialRectangle;html=1;whiteSpace=wrap;connectable=0;overflow=hidden;fillColor=none;top=0;left=0;bottom=0;right=0;" vertex="1" parent="lAXujb-X61F8iAVJOoB3-12">
          <mxGeometry x="86" width="86" height="70" as="geometry" />
        </mxCell>
        <mxCell id="lAXujb-X61F8iAVJOoB3-15" style="shape=partialRectangle;html=1;whiteSpace=wrap;connectable=0;overflow=hidden;fillColor=none;top=0;left=0;bottom=0;right=0;" vertex="1" parent="lAXujb-X61F8iAVJOoB3-12">
          <mxGeometry x="172" width="75" height="70" as="geometry" />
        </mxCell>
        <mxCell id="lAXujb-X61F8iAVJOoB3-16" style="shape=partialRectangle;html=1;whiteSpace=wrap;connectable=0;overflow=hidden;fillColor=none;top=0;left=0;bottom=0;right=0;" vertex="1" parent="lAXujb-X61F8iAVJOoB3-12">
          <mxGeometry x="247" width="161" height="70" as="geometry" />
        </mxCell>
        <mxCell id="lAXujb-X61F8iAVJOoB3-17" value="" style="shape=partialRectangle;collapsible=0;dropTarget=0;pointerEvents=0;fillColor=none;top=0;left=0;bottom=0;right=0;points=[[0,0.5],[1,0.5]];portConstraint=eastwest;" vertex="1" parent="lAXujb-X61F8iAVJOoB3-1">
          <mxGeometry y="200" width="408" height="70" as="geometry" />
        </mxCell>
        <mxCell id="lAXujb-X61F8iAVJOoB3-18" value="Item 3" style="shape=partialRectangle;html=1;whiteSpace=wrap;connectable=0;overflow=hidden;fillColor=none;top=0;left=0;bottom=0;right=0;" vertex="1" parent="lAXujb-X61F8iAVJOoB3-17">
          <mxGeometry width="86" height="70" as="geometry" />
        </mxCell>
        <mxCell id="lAXujb-X61F8iAVJOoB3-19" value="" style="shape=partialRectangle;html=1;whiteSpace=wrap;connectable=0;overflow=hidden;fillColor=none;top=0;left=0;bottom=0;right=0;" vertex="1" parent="lAXujb-X61F8iAVJOoB3-17">
          <mxGeometry x="86" width="86" height="70" as="geometry" />
        </mxCell>
        <mxCell id="lAXujb-X61F8iAVJOoB3-20" value="" style="shape=partialRectangle;html=1;whiteSpace=wrap;connectable=0;overflow=hidden;fillColor=none;top=0;left=0;bottom=0;right=0;" vertex="1" parent="lAXujb-X61F8iAVJOoB3-17">
          <mxGeometry x="172" width="75" height="70" as="geometry" />
        </mxCell>
        <mxCell id="lAXujb-X61F8iAVJOoB3-21" value="" style="shape=partialRectangle;html=1;whiteSpace=wrap;connectable=0;overflow=hidden;fillColor=none;top=0;left=0;bottom=0;right=0;" vertex="1" parent="lAXujb-X61F8iAVJOoB3-17">
          <mxGeometry x="247" width="161" height="70" as="geometry" />
        </mxCell>
        <mxCell id="lAXujb-X61F8iAVJOoB3-22" value="" style="shape=partialRectangle;collapsible=0;dropTarget=0;pointerEvents=0;fillColor=none;top=0;left=0;bottom=0;right=0;points=[[0,0.5],[1,0.5]];portConstraint=eastwest;" vertex="1" parent="lAXujb-X61F8iAVJOoB3-1">
          <mxGeometry y="270" width="408" height="70" as="geometry" />
        </mxCell>
        <mxCell id="lAXujb-X61F8iAVJOoB3-23" value="Item 4" style="shape=partialRectangle;html=1;whiteSpace=wrap;connectable=0;overflow=hidden;fillColor=none;top=0;left=0;bottom=0;right=0;" vertex="1" parent="lAXujb-X61F8iAVJOoB3-22">
          <mxGeometry width="86" height="70" as="geometry" />
        </mxCell>
        <mxCell id="lAXujb-X61F8iAVJOoB3-24" value="" style="shape=partialRectangle;html=1;whiteSpace=wrap;connectable=0;overflow=hidden;fillColor=none;top=0;left=0;bottom=0;right=0;" vertex="1" parent="lAXujb-X61F8iAVJOoB3-22">
          <mxGeometry x="86" width="86" height="70" as="geometry" />
        </mxCell>
        <mxCell id="lAXujb-X61F8iAVJOoB3-25" value="" style="shape=partialRectangle;html=1;whiteSpace=wrap;connectable=0;overflow=hidden;fillColor=none;top=0;left=0;bottom=0;right=0;" vertex="1" parent="lAXujb-X61F8iAVJOoB3-22">
          <mxGeometry x="172" width="75" height="70" as="geometry" />
        </mxCell>
        <mxCell id="lAXujb-X61F8iAVJOoB3-26" value="" style="shape=partialRectangle;html=1;whiteSpace=wrap;connectable=0;overflow=hidden;fillColor=none;top=0;left=0;bottom=0;right=0;" vertex="1" parent="lAXujb-X61F8iAVJOoB3-22">
          <mxGeometry x="247" width="161" height="70" as="geometry" />
        </mxCell>
        <mxCell id="lAXujb-X61F8iAVJOoB3-27" value="" style="shape=partialRectangle;collapsible=0;dropTarget=0;pointerEvents=0;fillColor=none;top=0;left=0;bottom=0;right=0;points=[[0,0.5],[1,0.5]];portConstraint=eastwest;" vertex="1" parent="lAXujb-X61F8iAVJOoB3-1">
          <mxGeometry y="340" width="408" height="66" as="geometry" />
        </mxCell>
        <mxCell id="lAXujb-X61F8iAVJOoB3-28" value="Item 5" style="shape=partialRectangle;html=1;whiteSpace=wrap;connectable=0;overflow=hidden;fillColor=none;top=0;left=0;bottom=0;right=0;" vertex="1" parent="lAXujb-X61F8iAVJOoB3-27">
          <mxGeometry width="86" height="66" as="geometry" />
        </mxCell>
        <mxCell id="lAXujb-X61F8iAVJOoB3-29" value="" style="shape=partialRectangle;html=1;whiteSpace=wrap;connectable=0;overflow=hidden;fillColor=none;top=0;left=0;bottom=0;right=0;" vertex="1" parent="lAXujb-X61F8iAVJOoB3-27">
          <mxGeometry x="86" width="86" height="66" as="geometry" />
        </mxCell>
        <mxCell id="lAXujb-X61F8iAVJOoB3-30" value="" style="shape=partialRectangle;html=1;whiteSpace=wrap;connectable=0;overflow=hidden;fillColor=none;top=0;left=0;bottom=0;right=0;" vertex="1" parent="lAXujb-X61F8iAVJOoB3-27">
          <mxGeometry x="172" width="75" height="66" as="geometry" />
        </mxCell>
        <mxCell id="lAXujb-X61F8iAVJOoB3-31" value="" style="shape=partialRectangle;html=1;whiteSpace=wrap;connectable=0;overflow=hidden;fillColor=none;top=0;left=0;bottom=0;right=0;" vertex="1" parent="lAXujb-X61F8iAVJOoB3-27">
          <mxGeometry x="247" width="161" height="66" as="geometry" />
        </mxCell>
      </root>
    </mxGraphModel>
  </diagram>
</mxfile>
